<svg id="Gradient" height="512" viewBox="0 0 512 512" width="512" xmlns="http://www.w3.org/2000/svg" xmlns:xlink="http://www.w3.org/1999/xlink"><linearGradient id="linear-gradient" gradientUnits="userSpaceOnUse" x1="256" x2="256" y1="496" y2="16"><stop offset="0" stop-color="#12c2e9"/><stop offset=".5" stop-color="#c471ed"/><stop offset="1" stop-color="#f64f59"/></linearGradient><path d="m493.657 162.343-80-80a8 8 0 0 0 -5.657-2.343h-80v-40c0-13.682-17.2-24-40-24-13.379 0-24.822 3.555-32 9.254-7.178-5.699-18.621-9.254-32-9.254-22.8 0-40 10.318-40 24v40h-80a8 8 0 0 0 -5.657 2.343l-80 80a8 8 0 0 0 -2.343 5.657v320a8 8 0 0 0 8 8h464a8 8 0 0 0 8-8v-320a8 8 0 0 0 -2.343-5.657zm-205.657-130.343c16.281 0 24 6.417 24 8v60.538a65.706 65.706 0 0 0 -48 0v-60.538c0-1.583 7.719-8 24-8zm-88 8c0-1.583 7.719-8 24-8s24 6.417 24 8v60.538a65.733 65.733 0 0 0 -48 0zm-92.687 56h76.687v24a8 8 0 0 0 16 0c0-1.583 7.719-8 24-8s24 6.417 24 8a8 8 0 0 0 16 0c0-1.583 7.719-8 24-8s24 6.417 24 8a8 8 0 0 0 16 0v-24h76.687l64 64h-425.374zm284.687 384h-272v-16h272zm-200-32v-16h128v16zm16-240v208h-16v-208zm16 208v-16h64v16zm24-32h-24v-80a32.056 32.056 0 0 1 24-30.987zm40 0h-24v-110.987a32.056 32.056 0 0 1 24 30.987zm0-115.739a47.889 47.889 0 0 0 -64 0v-60.261h64zm32 147.739h-16v-208h16zm-160-224v-16h192v16zm-128-16h112v24a8 8 0 0 0 8 8h24v240h-64a8 8 0 0 0 -8 8v24h-72zm376 304v-24a8 8 0 0 0 -8-8h-64v-240h24a8 8 0 0 0 8-8v-24h112v304zm-320-256h-32a8 8 0 0 0 -8 8v80a8 8 0 0 0 8 8h32a8 8 0 0 0 8-8v-80a8 8 0 0 0 -8-8zm-8 80h-16v-64h16zm40 16h32a8 8 0 0 0 8-8v-80a8 8 0 0 0 -8-8h-32a8 8 0 0 0 -8 8v80a8 8 0 0 0 8 8zm8-80h16v64h-16zm-8 192h32a8 8 0 0 0 8-8v-80a8 8 0 0 0 -8-8h-32a8 8 0 0 0 -8 8v80a8 8 0 0 0 8 8zm8-80h16v64h-16zm-40-16h-32a8 8 0 0 0 -8 8v80a8 8 0 0 0 8 8h32a8 8 0 0 0 8-8v-80a8 8 0 0 0 -8-8zm-8 80h-16v-64h16zm312-192h-32a8 8 0 0 0 -8 8v80a8 8 0 0 0 8 8h32a8 8 0 0 0 8-8v-80a8 8 0 0 0 -8-8zm-8 80h-16v-64h16zm72-80h-32a8 8 0 0 0 -8 8v80a8 8 0 0 0 8 8h32a8 8 0 0 0 8-8v-80a8 8 0 0 0 -8-8zm-8 80h-16v-64h16zm8 32h-32a8 8 0 0 0 -8 8v80a8 8 0 0 0 8 8h32a8 8 0 0 0 8-8v-80a8 8 0 0 0 -8-8zm-8 80h-16v-64h16zm-56-80h-32a8 8 0 0 0 -8 8v80a8 8 0 0 0 8 8h32a8 8 0 0 0 8-8v-80a8 8 0 0 0 -8-8zm-8 80h-16v-64h16z" fill="url(#linear-gradient)"/></svg>