<svg width="150" height="150" viewBox="0 0 150 150" fill="none" xmlns="http://www.w3.org/2000/svg">
<path d="M128.033 21.9669C113.868 7.80144 95.0329 0 75 0C54.966 0 36.1324 7.80144 21.9669 21.9669C7.80144 36.1324 0 54.966 0 75C0 95.0329 7.80144 113.868 21.9669 128.033C36.1324 142.199 54.966 150 75 150C95.0329 150 113.868 142.199 128.033 128.033C142.199 113.868 150 95.0329 150 75C150 54.966 142.199 36.1324 128.033 21.9669ZM37.5996 129.605C40.7364 111.544 56.3873 98.2224 75 98.2224C93.6138 98.2224 109.264 111.544 112.4 129.605C101.752 136.922 88.868 141.211 75 141.211C61.132 141.211 48.2483 136.922 37.5996 129.605ZM51.1528 65.5861C51.1528 52.4357 61.8507 41.7389 75 41.7389C88.1493 41.7389 98.8472 52.4368 98.8472 65.5861C98.8472 78.7354 88.1493 89.4333 75 89.4333C61.8507 89.4333 51.1528 78.7354 51.1528 65.5861ZM120.013 123.509C117.648 115.101 112.95 107.473 106.365 101.514C102.325 97.8573 97.7268 94.9722 92.783 92.9386C101.719 87.1101 107.637 77.0267 107.637 65.5861C107.637 47.5903 92.9958 32.9498 75 32.9498C57.0042 32.9498 42.3637 47.5903 42.3637 65.5861C42.3637 77.0267 48.2826 87.1101 57.217 92.9386C52.2743 94.9722 47.6749 97.8561 43.6352 101.513C37.0514 107.471 32.3524 115.1 29.987 123.508C16.9579 111.408 8.78906 94.1414 8.78906 75C8.78906 38.4911 38.4911 8.78906 75 8.78906C111.509 8.78906 141.211 38.4911 141.211 75C141.211 94.1425 133.042 111.409 120.013 123.509Z" fill="url(#paint0_linear)"/>
<defs>
<linearGradient id="paint0_linear" x1="75" y1="0" x2="75" y2="150" gradientUnits="userSpaceOnUse">
<stop stop-color="#FF7E67"/>
<stop offset="1" stop-color="#07689F"/>
</linearGradient>
</defs>
</svg>
